# xmcd
#
# Track frame offsets:
#	150
#	19607
#	42000
#	61525
#	81245
#	101145
#	125102
#	145817
#	166562
#	186275
#
# Disc length: 2793 seconds
#
# Revision: 1
# Processed by: cddbd v1.5.2PL0 Copyright (c) Steve Scherf et al.
# Submitted via: AudioConverter v8.05 Copyright (c) D.R. Software
#
DISCID=7a0ae70a
DTITLE=陳淑樺 - 淑樺盛開FOREVER
DYEAR=1995
DGENRE=Pop
TTITLE0=說，你愛我
TTITLE1=愛得比較深
TTITLE2=魔力
TTITLE3=愛的換日線
TTITLE4=聰明的人懂得忘記
TTITLE5=預感
TTITLE6=不做情人，不做朋友
TTITLE7=愛情不再來
TTITLE8=拔河
TTITLE9=KISS&TELL
EXTD=
EXTT0=
EXTT1=
EXTT2=
EXTT3=
EXTT4=
EXTT5=
EXTT6=
EXTT7=
EXTT8=
EXTT9=
PLAYORDER=
